<?xml version="1.0" encoding="UTF-8" standalone="no"?>
<svg
   version="1.1"
   id="svg1"
   sodipodi:docname="quarto.svg"
   width="30"
   height="30"
   inkscape:version="1.3 (0e150ed6c4, 2023-07-21)"
   xml:space="preserve"
   xmlns:inkscape="http://www.inkscape.org/namespaces/inkscape"
   xmlns:sodipodi="http://sodipodi.sourceforge.net/DTD/sodipodi-0.dtd"
   xmlns="http://www.w3.org/2000/svg"
   xmlns:svg="http://www.w3.org/2000/svg"><defs
     id="defs1" /><sodipodi:namedview
     id="namedview1"
     pagecolor="#ffffff"
     bordercolor="#000000"
     borderopacity="0.25"
     inkscape:showpageshadow="2"
     inkscape:pageopacity="0.0"
     inkscape:pagecheckerboard="0"
     inkscape:deskcolor="#d1d1d1"
     inkscape:zoom="6.08"
     inkscape:cx="24.671053"
     inkscape:cy="27.220395"
     inkscape:window-width="1920"
     inkscape:window-height="1027"
     inkscape:window-x="-8"
     inkscape:window-y="-8"
     inkscape:window-maximized="1"
     inkscape:current-layer="svg1" /><path
     style="fill:#000000;stroke-width:0.138772"
     d="m 2.233545,18.35987 4.2e-4,-7.59774 6.3803601,-2.1819402 6.3803699,-2.18194 6.38617,2.18166 6.38618,2.1816602 v 7.59802 7.59802 h -1.66526 -1.66526 v -6.24472 -6.24471 h -9.43646 -9.43646 v 6.24471 6.24472 h -1.66526 -1.66525 z m 6.0182301,7.39299 c -0.0432,-0.11261 -0.0542,-1.31472 -0.0243,-2.67135 0.0542,-2.46546 0.0738,-2.57891 0.63719,-3.68371 0.03,-0.0588 -0.13344,-0.17246 -0.36318,-0.25254 -0.48699,-0.16977 -0.63583,-0.45408 -0.43457,-0.83013 0.11441,-0.21378 0.29463,-0.26749 0.8975,-0.26749 h 0.75435 l 0.6631799,-1.0061 c 0.97584,-1.48043 1.00968,-1.49136 4.61816,-1.49136 3.60848,0 3.64232,0.0109 4.61816,1.49136 l 0.66318,1.0061 h 0.75435 c 0.60287,0 0.78309,0.0537 0.8975,0.26749 0.20126,0.37605 0.0524,0.66036 -0.43457,0.83013 -0.22974,0.0801 -0.39317,0.19373 -0.36318,0.25254 0.58649,1.15018 0.58773,1.15828 0.59139,3.85377 l 0.004,2.63665 -0.95898,0.0416 c -1.06448,0.0461 -1.18638,-0.0328 -1.18986,-0.7701 l -0.002,-0.451 h -4.57946 -4.57946 v 0.40496 c 0,0.77925 -0.0866,0.84398 -1.1293699,0.84398 -0.71902,0 -0.98069,-0.0515 -1.03948,-0.20475 z m 8.6217199,-2.22375 v -0.41632 h -1.87341 c -1.86904,0 -1.87352,7.8e-4 -1.92025,0.33124 -0.0258,0.18218 0.0367,0.38519 0.13877,0.45114 0.10209,0.0659 0.9662,0.10423 1.92025,0.0851 l 1.73464,-0.0348 z m -5.41506,-1.54333 c 0.33401,-0.33401 0.20591,-0.64567 -0.38381,-0.93376 -0.81513,-0.39821 -1.6268899,-0.46568 -1.8546799,-0.15415 -0.27876,0.38124 -0.22654,0.85319 0.12139,1.09688 0.4258,0.29825 1.8157699,0.29236 2.1170999,-0.009 z m 9.2004,0.009 c 0.34793,-0.24369 0.40016,-0.71564 0.12139,-1.09688 -0.22779,-0.31153 -1.03955,-0.24406 -1.85468,0.15415 -0.58971,0.28809 -0.71782,0.59975 -0.38381,0.93376 0.30133,0.30133 1.6913,0.30722 2.1171,0.009 z m -0.59656,-2.83214 c 0.0455,-0.0737 -0.28165,-0.71377 -0.72708,-1.42241 -0.65434,-1.04098 -0.90188,-1.32025 -1.28886,-1.45407 -0.30393,-0.1051 -1.41723,-0.16563 -3.04625,-0.16563 -1.62902,0 -2.74232,0.0605 -3.04625,0.16563 -0.38698,0.13382 -0.63452,0.41309 -1.28886,1.45407 -0.44543,0.70864 -0.7726199,1.34873 -0.7270799,1.42241 0.1118699,0.18101 10.0125099,0.18101 10.1243799,0 z m -20.02116005,-9.11742 0.041,-0.9251002 2.15095005,-0.72557 c 1.18303,-0.39906 4.5412001,-1.54156 7.4625901,-2.5388896 l 5.3116299,-1.81332 7.45535,2.5467896 7.45534,2.54678 0.041,0.9172102 0.041,0.9172 h -0.7002 c -0.68548,0 -0.7002,-0.009 -0.7002,-0.41631 0,-0.22898 -0.0223,-0.41632 -0.0496,-0.41632 -0.0273,0 -2.07246,-0.6921502 -4.54477,-1.5381002 -2.47231,-0.84596 -5.5134,-1.88396 -6.75797,-2.30667 l -2.26287,-0.7685596 -5.92465,2.0268696 c -3.2585601,1.11478 -6.3149501,2.15851 -6.7919701,2.31941 -0.79803,0.2691602 -0.86732,0.3247702 -0.86732,0.6961102 0,0.39226 -0.0196,0.40357 -0.70019995,0.40357 h -0.7002 z"
     id="path2"
     sodipodi:nodetypes="cccccccccccccccccccsssssscssscssssscsscccssssccssssccssssssssssssssssssssccsscccccssssscsssscc" /></svg>
