<?xml version="1.0" encoding="UTF-8" standalone="no"?>
<svg
   version="1.1"
   id="svg1"
   sodipodi:docname="banheiro.svg"
   width="30"
   height="30"
   inkscape:version="1.3 (0e150ed6c4, 2023-07-21)"
   xmlns:inkscape="http://www.inkscape.org/namespaces/inkscape"
   xmlns:sodipodi="http://sodipodi.sourceforge.net/DTD/sodipodi-0.dtd"
   xmlns="http://www.w3.org/2000/svg"
   xmlns:svg="http://www.w3.org/2000/svg">
  <defs
     id="defs1" />
  <sodipodi:namedview
     id="namedview1"
     pagecolor="#ffffff"
     bordercolor="#000000"
     borderopacity="0.25"
     inkscape:showpageshadow="2"
     inkscape:pageopacity="0.0"
     inkscape:pagecheckerboard="0"
     inkscape:deskcolor="#d1d1d1"
     inkscape:zoom="6.08"
     inkscape:cx="24.671053"
     inkscape:cy="27.220395"
     inkscape:window-width="1920"
     inkscape:window-height="1027"
     inkscape:window-x="-8"
     inkscape:window-y="-8"
     inkscape:window-maximized="1"
     inkscape:current-layer="svg1" />
  <path
     style="fill:#000000;stroke-width:0.415425"
     d="M 4.8695095,28.07057 C 4.644615,28.009328 4.4302242,27.812567 4.3384315,27.583153 4.1972082,27.230204 4.2806709,25.081281 4.4464571,24.801815 c 0.064115,-0.108079 0.136887,-0.196508 0.1617149,-0.196508 0.024831,0 0.215178,0.15172 0.4229998,0.337155 0.2078224,0.185438 0.6031748,0.485541 0.8785614,0.666895 0.5125951,0.337569 1.5479598,0.870336 1.6913897,0.870336 0.1073516,0 0.1012027,0.04207 -0.039419,0.269603 -0.09015,0.145863 -0.3722729,0.330063 -1.1519826,0.752135 -0.9901531,0.535989 -1.2751732,0.641307 -1.5402095,0.569139 z m 19.8353615,-4.15e-4 c -0.305213,-0.08235 -2.01892,-1.029173 -2.194955,-1.212708 -0.203941,-0.212631 -0.254868,-0.377663 -0.116544,-0.377663 0.14679,0 1.213741,-0.549907 1.721329,-0.887173 0.275725,-0.183203 0.66259,-0.482412 0.859704,-0.664903 0.197116,-0.182492 0.38665,-0.314338 0.421191,-0.292991 0.197025,0.121769 0.258224,0.433095 0.311989,1.587088 0.06037,1.29576 0.02978,1.466807 -0.304892,1.705116 -0.175135,0.12471 -0.510995,0.193645 -0.697827,0.143234 z M 9.7066396,26.197046 C 6.4186846,25.784413 3.7845173,23.39903 3.1482165,20.258033 2.9804331,19.429796 2.9322504,18.646894 3.024631,18.249935 3.187863,17.548527 3.6319288,17.000216 4.2845102,16.694297 L 4.6276528,16.533439 H 14.997249 25.366846 l 0.343141,0.160858 c 0.717039,0.336136 1.219604,1.025479 1.296973,1.779001 0.07036,0.685303 -0.117456,1.875621 -0.437264,2.771156 -0.817439,2.289044 -2.796453,4.112167 -5.133019,4.728691 -0.953483,0.251584 -1.243374,0.262943 -6.499892,0.254638 -2.776815,-0.0043 -5.1303814,-0.0182 -5.2301454,-0.03074 z M 24.35507,10.897562 C 24.336833,5.9029838 24.327813,5.5057039 24.225637,5.1963245 23.844064,4.0410667 22.978456,3.2104794 21.957487,3.0199357 20.914808,2.8253407 19.964266,3.0419317 19.2508,3.6366842 c -0.349045,0.2909672 -0.835681,0.9745302 -0.898993,1.2627889 -0.037,0.168449 -0.01097,0.2203597 0.236787,0.4718782 0.307428,0.3121221 0.33488,0.3951107 0.161406,0.4879514 -0.152549,0.081641 -1.790254,0.081641 -1.942802,0 -0.177647,-0.095074 -0.144442,-0.1869673 0.184699,-0.5111603 0.16591,-0.1634145 0.332921,-0.3936666 0.371137,-0.5116718 0.03821,-0.1180054 0.164093,-0.4050168 0.279728,-0.6378038 1.232235,-2.4806519 4.386452,-3.0631157 6.312109,-1.1656058 0.623785,0.6146689 1.002295,1.2684936 1.238397,2.139168 0.106489,0.3926904 0.113119,0.7286499 0.113119,5.737954 v 5.320844 l -0.465857,0.01761 -0.465858,0.01761 z m -9.217962,1.410943 c 0.01916,-0.04993 0.06461,-0.201317 0.100981,-0.336417 0.06321,-0.234739 0.07677,-0.24564 0.30567,-0.24564 0.270105,0 0.266899,-0.0074 0.15669,0.362786 -0.07807,0.26228 -0.09032,0.272772 -0.339587,0.29107 -0.209745,0.01539 -0.252008,0.0018 -0.223753,-0.0718 z m 2.33917,-0.249503 v -0.332554 h 0.241857 0.241856 v 0.332554 0.332553 h -0.241856 -0.241857 z m 2.224975,0 -0.09257,-0.332554 h 0.251464 c 0.247058,0 0.252741,0.0048 0.324467,0.272957 0.102731,0.384126 0.09949,0.39215 -0.158904,0.39215 -0.229567,0 -0.232838,-0.0033 -0.324467,-0.332553 z m -4.15866,-1.10347 c 6.23e-4,-0.02494 0.03628,-0.181393 0.07921,-0.347669 0.07708,-0.298592 0.08123,-0.302552 0.336645,-0.32117 0.225402,-0.01643 0.254541,-0.0048 0.226968,0.09069 -0.0174,0.06024 -0.06489,0.225183 -0.105528,0.366518 -0.07042,0.244904 -0.0848,0.256972 -0.306176,0.256972 -0.127758,0 -0.231761,-0.02041 -0.231119,-0.04535 z m 1.933685,-0.321509 v -0.366857 l 0.226741,0.02186 0.226741,0.02186 0.01814,0.345002 0.01813,0.345003 h -0.244873 -0.244874 z m 1.848446,0.04011 c -0.05225,-0.179708 -0.09499,-0.338501 -0.09499,-0.352873 0,-0.01438 0.107845,-0.03035 0.239667,-0.03552 0.233506,-0.0091 0.24137,-0.0028 0.305919,0.24706 0.03644,0.14105 0.08007,0.304067 0.09696,0.362265 0.02563,0.08824 -0.0094,0.105811 -0.210933,0.105811 -0.240348,0 -0.242147,-0.0017 -0.336627,-0.326743 z M 15.992632,9.3165055 c 0.10713,-0.4060864 0.129136,-0.4318756 0.368629,-0.4318756 0.234419,0 0.242793,0.028304 0.12522,0.4232488 -0.0772,0.2593134 -0.09255,0.2729504 -0.327019,0.2904555 l -0.24602,0.01836 z m 1.483646,-0.072738 V 8.8773326 l 0.226741,0.018767 0.226741,0.018767 0.01814,0.347669 0.01813,0.347669 h -0.244873 -0.244874 z m 1.545263,0.2908547 c -0.01265,-0.041575 -0.05262,-0.1680683 -0.0888,-0.2811115 -0.104147,-0.3253608 -0.08736,-0.3688768 0.142267,-0.3688768 0.239196,0 0.261586,0.026086 0.36777,0.4286237 l 0.07833,0.2969444 h -0.238281 c -0.138045,0 -0.247961,-0.031791 -0.261291,-0.075585 z M 16.32746,8.1396036 c 0,-0.043953 0.04337,-0.2072112 0.09639,-0.3627835 0.08818,-0.2587885 0.113044,-0.28286 0.292243,-0.28286 0.107721,0 0.210169,0.014306 0.227654,0.031791 0.01749,0.017485 -0.0096,0.1807381 -0.06034,0.3627847 -0.09115,0.3274704 -0.0946,0.3309933 -0.324034,0.3309933 -0.15194,0 -0.231906,-0.027565 -0.231906,-0.079922 z M 17.476278,7.8530949 V 7.4866604 l 0.226741,0.018767 0.226741,0.018767 0.01814,0.3476677 0.01813,0.347669 h -0.244873 -0.244874 z m 1.081662,0.035426 c -0.05356,-0.181932 -0.08304,-0.3451342 -0.0655,-0.3626713 0.01753,-0.017535 0.123253,-0.031878 0.234927,-0.031878 0.219576,0 0.27321,0.076891 0.35399,0.50749 l 0.04091,0.2180794 -0.233469,-1.133e-4 C 18.658158,8.2193155 18.654148,8.2153577 18.55794,7.888528 Z M 16.709175,6.7458063 c 0.01916,-0.049929 0.06461,-0.2013166 0.100981,-0.3364176 0.06321,-0.2347393 0.07677,-0.2456383 0.30567,-0.2456383 0.270105,0 0.266899,-0.00742 0.15669,0.3627847 -0.07807,0.2622797 -0.09032,0.272773 -0.339587,0.2910695 -0.209745,0.015395 -0.252007,0.00182 -0.223753,-0.071798 z M 17.476278,6.496303 V 6.1637504 h 0.241857 0.241856 V 6.496303 6.8288555 h -0.241856 -0.241857 z m 0.785379,0.2872044 c -3.6e-4,-0.024943 -0.04033,-0.1761131 -0.08882,-0.3359375 l -0.08817,-0.2905898 0.248761,0.018503 c 0.237697,0.017676 0.252364,0.030605 0.329762,0.2905893 0.110259,0.3703906 0.113598,0.3627847 -0.159022,0.3627847 -0.133021,0 -0.242151,-0.020406 -0.242511,-0.045348 z"
     id="path1" />
</svg>
